# xmcd
#
# Track frame offsets:
#	150
#	16149
#	33842
#	48876
#	64854
#	81786
#	98316
#	113392
#	129286
#	144816
#	160375
#	175492
#
# Disc length: 2608 seconds
#
# Revision: 0
# Processed by: cddbd v1.5.2PL0 Copyright (c) Steve Scherf et al.
# Submitted via: audiograbber 1.83.01
#
DISCID=820a2e0c
DTITLE=Fernando Express - Tanz auf dem Vulkan
DYEAR=2007
DGENRE=Schlager
TTITLE0=Tanz auf dem Vulkan
TTITLE1=Auch kleine Drachen fliegen in den Himmel
TTITLE2=Tausend un ein Gefühl
TTITLE3=Halleluja Blue
TTITLE4=Fliegen bis zum Regenbogen
TTITLE5=Solang noch Wunder möglich sind
TTITLE6=Vaya con Fortuna
TTITLE7=Im Namen der Liebe
TTITLE8=Das ein mal eins der Liebe
TTITLE9=Du bist mein tägliches Wunder
TTITLE10=Sonne im Gesicht
TTITLE11=Einfach ein bisschen Sehnsucht
EXTD=
EXTT0=
EXTT1=
EXTT2=
EXTT3=
EXTT4=
EXTT5=
EXTT6=
EXTT7=
EXTT8=
EXTT9=
EXTT10=
EXTT11=
PLAYORDER=
